<svg width="104" height="49" viewBox="0 0 104 49" fill="none" xmlns="http://www.w3.org/2000/svg">
<path fill-rule="evenodd" clip-rule="evenodd" d="M29.323 19.5957L27.9625 18.2353V14.0464C27.9625 13.554 27.5589 13.1504 27.0626 13.1504H25.6904C25.1981 13.1504 24.7945 13.554 24.7945 14.0464V15.0673L20.9408 11.2136C20.4727 10.7414 19.7059 10.7414 19.2377 11.2136L10.8556 19.5957C10.3834 20.0639 10 20.9921 10 21.6539V23.131C14.4272 26.4201 19.9077 28.3653 25.8442 28.3653C27.3212 28.3653 28.7701 28.2442 30.1785 28.0142V21.6539C30.1785 20.9921 29.7951 20.0639 29.323 19.5957ZM21.9249 33.6722V38.406C21.9249 38.8096 22.4132 39.0114 22.6998 38.7249L27.7524 33.6722H28.9718C29.6337 33.6722 30.1785 33.1274 30.1785 32.4655V29.3702C28.7701 29.6002 27.3212 29.7213 25.8442 29.7213C19.9077 29.7213 14.4272 27.7761 10 24.491V32.4655C10 33.1274 10.5448 33.6722 11.2067 33.6722H21.9249Z" fill="#574EFA"/>
<path d="M49.8272 20.6748V22.8981H42.1785V20.6748H49.8272ZM44.0668 17.7528H47.2025V29.2027C47.2025 29.5892 47.2661 29.8856 47.3931 30.0921C47.5259 30.2932 47.6992 30.4308 47.9128 30.5049C48.1265 30.5791 48.3633 30.6161 48.6231 30.6161C48.8195 30.6161 48.9985 30.6029 49.1602 30.5764C49.3276 30.5499 49.4547 30.5261 49.5413 30.5049L50.0697 32.7521C49.9022 32.805 49.6626 32.8632 49.3507 32.9267C49.0447 32.9903 48.6693 33.0273 48.2247 33.0379C47.4393 33.0591 46.7319 32.9506 46.1024 32.7124C45.473 32.4689 44.9735 32.093 44.6039 31.5848C44.2401 31.0767 44.061 30.4414 44.0668 29.6792V17.7528Z" fill="#574EFA"/>
<path d="M57.9749 33.1094C56.6755 33.1094 55.5494 32.8473 54.5966 32.3233C53.6438 31.7992 52.9046 31.0661 52.3791 30.1238C51.8594 29.1816 51.5995 28.0805 51.5995 26.8206C51.5995 25.5608 51.8594 24.4571 52.3791 23.5095C52.9046 22.562 53.6438 21.8262 54.5966 21.3021C55.5494 20.778 56.6755 20.516 57.9749 20.516C59.2742 20.516 60.4003 20.778 61.3531 21.3021C62.3059 21.8262 63.0422 22.562 63.562 23.5095C64.0875 24.4571 64.3502 25.5608 64.3502 26.8206C64.3502 28.0805 64.0875 29.1816 63.562 30.1238C63.0422 31.0661 62.3059 31.7992 61.3531 32.3233C60.4003 32.8473 59.2742 33.1094 57.9749 33.1094ZM57.9922 30.8067C58.6967 30.8067 59.2857 30.6293 59.7593 30.2747C60.2328 29.9147 60.5851 29.433 60.8161 28.8295C61.0528 28.2261 61.1712 27.5538 61.1712 26.8127C61.1712 26.0663 61.0528 25.3914 60.8161 24.7879C60.5851 24.1792 60.2328 23.6948 59.7593 23.3348C59.2857 22.9749 58.6967 22.7949 57.9922 22.7949C57.2703 22.7949 56.6698 22.9749 56.1904 23.3348C55.7169 23.6948 55.3618 24.1792 55.125 24.7879C54.894 25.3914 54.7785 26.0663 54.7785 26.8127C54.7785 27.5538 54.894 28.2261 55.125 28.8295C55.3618 29.433 55.7169 29.9147 56.1904 30.2747C56.6698 30.6293 57.2703 30.8067 57.9922 30.8067Z" fill="#574EFA"/>
<path d="M73.5201 20.6748V22.8981H65.8713V20.6748H73.5201ZM67.7597 17.7528H70.8954V29.2027C70.8954 29.5892 70.9589 29.8856 71.086 30.0921C71.2188 30.2932 71.392 30.4308 71.6057 30.5049C71.8194 30.5791 72.0561 30.6161 72.316 30.6161C72.5124 30.6161 72.6914 30.6029 72.8531 30.5764C73.0205 30.5499 73.1476 30.5261 73.2342 30.5049L73.7626 32.7521C73.5951 32.805 73.3555 32.8632 73.0436 32.9267C72.7376 32.9903 72.3622 33.0273 71.9175 33.0379C71.1322 33.0591 70.4248 32.9506 69.7953 32.7124C69.1659 32.4689 68.6663 32.093 68.2968 31.5848C67.9329 31.0767 67.7539 30.4414 67.7597 29.6792V17.7528Z" fill="#574EFA"/>
<path d="M81.7544 33.1094C80.4204 33.1094 79.2683 32.8553 78.2982 32.3471C77.3338 31.8336 76.5917 31.1084 76.072 30.1715C75.5522 29.2292 75.2924 28.1202 75.2924 26.8445C75.2924 25.5899 75.5522 24.4888 76.072 23.5413C76.5975 22.5884 77.3309 21.8473 78.2722 21.318C79.2135 20.7833 80.3193 20.516 81.5898 20.516C82.4098 20.516 83.1836 20.6378 83.9112 20.8813C84.6446 21.1195 85.2914 21.49 85.8516 21.9929C86.4175 22.4958 86.8622 23.1363 87.1855 23.9145C87.5089 24.6873 87.6706 25.6084 87.6706 26.6777V27.5591H76.7649V25.6216H84.6648C84.6591 25.0711 84.5291 24.5815 84.2751 24.1527C84.021 23.7186 83.6658 23.3772 83.2096 23.1284C82.7592 22.8796 82.2337 22.7552 81.6331 22.7552C80.9921 22.7552 80.429 22.8981 79.944 23.184C79.4589 23.4645 79.0806 23.8351 78.8092 24.2956C78.5436 24.7509 78.4079 25.2511 78.4021 25.7963V27.4876C78.4021 28.197 78.5436 28.8057 78.8265 29.3139C79.1095 29.8168 79.5051 30.2032 80.0133 30.4732C80.5214 30.7379 81.1162 30.8702 81.7977 30.8702C82.2539 30.8702 82.6668 30.812 83.0364 30.6955C83.4059 30.5738 83.7264 30.3964 83.9979 30.1635C84.2693 29.9306 84.4743 29.6421 84.6129 29.298L87.5407 29.5998C87.3559 30.3091 87.0036 30.9284 86.4839 31.4578C85.9699 31.9818 85.3116 32.3895 84.5089 32.6806C83.7062 32.9664 82.788 33.1094 81.7544 33.1094Z" fill="#574EFA"/>
<path d="M93.3236 16.6094V32.8712H90.1879V16.6094H93.3236Z" fill="#574EFA"/>
</svg>
